<svg id="visual" viewBox="0 0 960 540" width="960" height="540" xmlns="http://www.w3.org/2000/svg" xmlns:xlink="http://www.w3.org/1999/xlink" version="1.1"><rect x="0" y="0" width="960" height="540" fill="#001220"></rect><path d="M0 317L22.8 324.5C45.7 332 91.3 347 137 354.3C182.7 361.7 228.3 361.3 274 362C319.7 362.7 365.3 364.3 411.2 357.7C457 351 503 336 548.8 332.7C594.7 329.3 640.3 337.7 686 341.7C731.7 345.7 777.3 345.3 823 344.8C868.7 344.3 914.3 343.7 937.2 343.3L960 343L960 541L937.2 541C914.3 541 868.7 541 823 541C777.3 541 731.7 541 686 541C640.3 541 594.7 541 548.8 541C503 541 457 541 411.2 541C365.3 541 319.7 541 274 541C228.3 541 182.7 541 137 541C91.3 541 45.7 541 22.8 541L0 541Z" fill="#fa7268"></path><path d="M0 368L22.8 372C45.7 376 91.3 384 137 382.7C182.7 381.3 228.3 370.7 274 367C319.7 363.3 365.3 366.7 411.2 376.2C457 385.7 503 401.3 548.8 411.5C594.7 421.7 640.3 426.3 686 428.2C731.7 430 777.3 429 823 420.3C868.7 411.7 914.3 395.3 937.2 387.2L960 379L960 541L937.2 541C914.3 541 868.7 541 823 541C777.3 541 731.7 541 686 541C640.3 541 594.7 541 548.8 541C503 541 457 541 411.2 541C365.3 541 319.7 541 274 541C228.3 541 182.7 541 137 541C91.3 541 45.7 541 22.8 541L0 541Z" fill="#ef5f67"></path><path d="M0 393L22.8 400.3C45.7 407.7 91.3 422.3 137 432.3C182.7 442.3 228.3 447.7 274 441.8C319.7 436 365.3 419 411.2 412.7C457 406.3 503 410.7 548.8 414.8C594.7 419 640.3 423 686 425.5C731.7 428 777.3 429 823 431.7C868.7 434.3 914.3 438.7 937.2 440.8L960 443L960 541L937.2 541C914.3 541 868.7 541 823 541C777.3 541 731.7 541 686 541C640.3 541 594.7 541 548.8 541C503 541 457 541 411.2 541C365.3 541 319.7 541 274 541C228.3 541 182.7 541 137 541C91.3 541 45.7 541 22.8 541L0 541Z" fill="#e34c67"></path><path d="M0 479L22.8 471.3C45.7 463.7 91.3 448.3 137 447C182.7 445.7 228.3 458.3 274 464.2C319.7 470 365.3 469 411.2 469.5C457 470 503 472 548.8 468.5C594.7 465 640.3 456 686 455C731.7 454 777.3 461 823 466C868.7 471 914.3 474 937.2 475.5L960 477L960 541L937.2 541C914.3 541 868.7 541 823 541C777.3 541 731.7 541 686 541C640.3 541 594.7 541 548.8 541C503 541 457 541 411.2 541C365.3 541 319.7 541 274 541C228.3 541 182.7 541 137 541C91.3 541 45.7 541 22.8 541L0 541Z" fill="#d53867"></path><path d="M0 515L22.8 514C45.7 513 91.3 511 137 503.8C182.7 496.7 228.3 484.3 274 485C319.7 485.7 365.3 499.3 411.2 502.5C457 505.7 503 498.3 548.8 495.7C594.7 493 640.3 495 686 494.5C731.7 494 777.3 491 823 494.2C868.7 497.3 914.3 506.7 937.2 511.3L960 516L960 541L937.2 541C914.3 541 868.7 541 823 541C777.3 541 731.7 541 686 541C640.3 541 594.7 541 548.8 541C503 541 457 541 411.2 541C365.3 541 319.7 541 274 541C228.3 541 182.7 541 137 541C91.3 541 45.7 541 22.8 541L0 541Z" fill="#c62368"></path></svg>